
<svg xmlns="http://www.w3.org/2000/svg" width="0" height="0" style="display:none">
  <defs>
    <symbol id="i-dashboard" viewBox="0 0 24 24" fill="none" stroke="currentColor" stroke-width="1.75" stroke-linecap="round" stroke-linejoin="round">
      <rect x="3" y="3" width="7" height="9" rx="1.5"></rect>
      <rect x="14" y="3" width="7" height="5" rx="1.5"></rect>
      <rect x="14" y="12" width="7" height="9" rx="1.5"></rect>
      <rect x="3" y="16" width="7" height="5" rx="1.5"></rect>
    </symbol>
    <symbol id="i-trades" viewBox="0 0 24 24" fill="none" stroke="currentColor" stroke-width="1.75" stroke-linecap="round" stroke-linejoin="round">
      <path d="M3 21V8m6 13V3m6 18v-9m6 9V11"></path>
    </symbol>
    <symbol id="i-calendar" viewBox="0 0 24 24" fill="none" stroke="currentColor" stroke-width="1.75" stroke-linecap="round" stroke-linejoin="round">
      <rect x="3" y="5" width="18" height="16" rx="2"></rect>
      <path d="M3 9h18M8 3v4M16 3v4"></path>
    </symbol>
    <symbol id="i-analytics" viewBox="0 0 24 24" fill="none" stroke="currentColor" stroke-width="1.75" stroke-linecap="round" stroke-linejoin="round">
      <path d="M3 17l5-5 4 4 8-8"></path>
      <path d="M14 8h6v6"></path>
    </symbol>
    <symbol id="i-journal" viewBox="0 0 24 24" fill="none" stroke="currentColor" stroke-width="1.75" stroke-linecap="round" stroke-linejoin="round">
      <path d="M4 4.5A2.5 2.5 0 0 1 6.5 2H20v18H6.5A2.5 2.5 0 0 1 4 17.5z"></path>
      <path d="M4 17.5A2.5 2.5 0 0 1 6.5 15H20"></path>
    </symbol>
    <symbol id="i-review" viewBox="0 0 24 24" fill="none" stroke="currentColor" stroke-width="1.75" stroke-linecap="round" stroke-linejoin="round">
      <path d="M9 11l3 3 8-8"></path>
      <path d="M21 12v6a3 3 0 0 1-3 3H6a3 3 0 0 1-3-3V6a3 3 0 0 1 3-3h9"></path>
    </symbol>
    <symbol id="i-portfolio" viewBox="0 0 24 24" fill="none" stroke="currentColor" stroke-width="1.75" stroke-linecap="round" stroke-linejoin="round">
      <path d="M12 2v20M2 12h20"></path>
      <circle cx="12" cy="12" r="9"></circle>
    </symbol>
    <symbol id="i-replay" viewBox="0 0 24 24" fill="none" stroke="currentColor" stroke-width="1.75" stroke-linecap="round" stroke-linejoin="round">
      <path d="M3 12a9 9 0 1 0 3-6.7"></path>
      <path d="M3 4v5h5"></path>
    </symbol>
    <symbol id="i-leaderboard" viewBox="0 0 24 24" fill="none" stroke="currentColor" stroke-width="1.75" stroke-linecap="round" stroke-linejoin="round">
      <path d="M8 21h8M12 17v4M7 4h10v5a5 5 0 0 1-10 0z"></path>
      <path d="M17 5h3v3a3 3 0 0 1-3 3M7 5H4v3a3 3 0 0 0 3 3"></path>
    </symbol>
    <symbol id="i-calculator" viewBox="0 0 24 24" fill="none" stroke="currentColor" stroke-width="1.75" stroke-linecap="round" stroke-linejoin="round">
      <rect x="5" y="3" width="14" height="18" rx="2"></rect>
      <path d="M9 7h6M9 12h.01M12 12h.01M15 12h.01M9 16h.01M12 16h.01M15 16h.01"></path>
    </symbol>
    <symbol id="i-accounts" viewBox="0 0 24 24" fill="none" stroke="currentColor" stroke-width="1.75" stroke-linecap="round" stroke-linejoin="round">
      <rect x="3" y="6" width="18" height="13" rx="2"></rect>
      <path d="M3 10h18M7 15h3"></path>
    </symbol>
    <symbol id="i-import" viewBox="0 0 24 24" fill="none" stroke="currentColor" stroke-width="1.75" stroke-linecap="round" stroke-linejoin="round">
      <path d="M12 3v12M7 10l5 5 5-5"></path>
      <path d="M5 21h14"></path>
    </symbol>
    <symbol id="i-export" viewBox="0 0 24 24" fill="none" stroke="currentColor" stroke-width="1.75" stroke-linecap="round" stroke-linejoin="round">
      <path d="M12 17V5M7 10l5-5 5 5"></path>
      <path d="M5 21h14"></path>
    </symbol>
    <symbol id="i-template" viewBox="0 0 24 24" fill="none" stroke="currentColor" stroke-width="1.75" stroke-linecap="round" stroke-linejoin="round">
      <rect x="3" y="3" width="18" height="18" rx="2"></rect>
      <path d="M3 9h18M9 9v12"></path>
    </symbol>
    <symbol id="i-report" viewBox="0 0 24 24" fill="none" stroke="currentColor" stroke-width="1.75" stroke-linecap="round" stroke-linejoin="round">
      <path d="M14 3H6a2 2 0 0 0-2 2v14a2 2 0 0 0 2 2h12a2 2 0 0 0 2-2V9z"></path>
      <path d="M14 3v6h6M9 14h6M9 17h4"></path>
    </symbol>
    <symbol id="i-moon" viewBox="0 0 24 24" fill="none" stroke="currentColor" stroke-width="1.75" stroke-linecap="round" stroke-linejoin="round">
      <path d="M21 12.79A9 9 0 1 1 11.21 3 7 7 0 0 0 21 12.79Z"></path>
    </symbol>
    <symbol id="i-sun" viewBox="0 0 24 24" fill="none" stroke="currentColor" stroke-width="1.75" stroke-linecap="round" stroke-linejoin="round">
      <circle cx="12" cy="12" r="4"></circle>
      <path d="M12 2v2M12 20v2M4.93 4.93l1.41 1.41M17.66 17.66l1.41 1.41M2 12h2M20 12h2M4.93 19.07l1.41-1.41M17.66 6.34l1.41-1.41"></path>
    </symbol>
    <symbol id="i-plus" viewBox="0 0 24 24" fill="none" stroke="currentColor" stroke-width="2" stroke-linecap="round" stroke-linejoin="round">
      <path d="M12 5v14M5 12h14"></path>
    </symbol>
    <symbol id="i-search" viewBox="0 0 24 24" fill="none" stroke="currentColor" stroke-width="1.75" stroke-linecap="round" stroke-linejoin="round">
      <circle cx="11" cy="11" r="7"></circle>
      <path d="m21 21-4.3-4.3"></path>
    </symbol>
    <symbol id="i-chevron-left" viewBox="0 0 24 24" fill="none" stroke="currentColor" stroke-width="1.75" stroke-linecap="round" stroke-linejoin="round">
      <path d="m15 18-6-6 6-6"></path>
    </symbol>
    <symbol id="i-chevron-right" viewBox="0 0 24 24" fill="none" stroke="currentColor" stroke-width="1.75" stroke-linecap="round" stroke-linejoin="round">
      <path d="m9 18 6-6-6-6"></path>
    </symbol>
    <symbol id="i-chevron-down" viewBox="0 0 24 24" fill="none" stroke="currentColor" stroke-width="1.75" stroke-linecap="round" stroke-linejoin="round">
      <path d="m6 9 6 6 6-6"></path>
    </symbol>
    <symbol id="i-arrow-up" viewBox="0 0 24 24" fill="none" stroke="currentColor" stroke-width="2" stroke-linecap="round" stroke-linejoin="round">
      <path d="M12 19V5M5 12l7-7 7 7"></path>
    </symbol>
    <symbol id="i-arrow-down" viewBox="0 0 24 24" fill="none" stroke="currentColor" stroke-width="2" stroke-linecap="round" stroke-linejoin="round">
      <path d="M12 5v14M5 12l7 7 7-7"></path>
    </symbol>
    <symbol id="i-trophy" viewBox="0 0 24 24" fill="none" stroke="currentColor" stroke-width="1.75" stroke-linecap="round" stroke-linejoin="round">
      <path d="M8 21h8M12 17v4M7 4h10v5a5 5 0 0 1-10 0z"></path>
      <path d="M17 5h3v3a3 3 0 0 1-3 3M7 5H4v3a3 3 0 0 0 3 3"></path>
    </symbol>
    <symbol id="i-x" viewBox="0 0 24 24" fill="none" stroke="currentColor" stroke-width="2" stroke-linecap="round" stroke-linejoin="round">
      <path d="M18 6 6 18M6 6l12 12"></path>
    </symbol>
    <symbol id="i-bolt" viewBox="0 0 24 24" fill="none" stroke="currentColor" stroke-width="1.75" stroke-linecap="round" stroke-linejoin="round">
      <path d="M13 2 4 14h7l-1 8 9-12h-7l1-8Z"></path>
    </symbol>
    <symbol id="i-eye" viewBox="0 0 24 24" fill="none" stroke="currentColor" stroke-width="1.75" stroke-linecap="round" stroke-linejoin="round">
      <path d="M2 12s3.5-7 10-7 10 7 10 7-3.5 7-10 7-10-7-10-7Z"></path>
      <circle cx="12" cy="12" r="3"></circle>
    </symbol>
    <symbol id="i-google" viewBox="0 0 24 24">
      <path fill="#4285F4" d="M22.56 12.25c0-.78-.07-1.53-.2-2.25H12v4.26h5.92c-.26 1.37-1.04 2.53-2.21 3.31v2.77h3.57c2.08-1.92 3.28-4.74 3.28-8.09z"></path>
      <path fill="#34A853" d="M12 23c2.97 0 5.46-.98 7.28-2.66l-3.57-2.77c-.98.66-2.23 1.06-3.71 1.06-2.86 0-5.29-1.93-6.16-4.53H2.18v2.84C3.99 20.53 7.7 23 12 23z"></path>
      <path fill="#FBBC05" d="M5.84 14.09c-.22-.66-.35-1.36-.35-2.09s.13-1.43.35-2.09V7.07H2.18C1.43 8.55 1 10.22 1 12s.43 3.45 1.18 4.93l3.66-2.84z"></path>
      <path fill="#EA4335" d="M12 5.38c1.62 0 3.06.56 4.21 1.64l3.15-3.15C17.45 2.09 14.97 1 12 1 7.7 1 3.99 3.47 2.18 7.07l3.66 2.84c.87-2.6 3.3-4.53 6.16-4.53z"></path>
    </symbol>
    <symbol id="i-tri-up" viewBox="0 0 12 12" fill="currentColor">
      <path d="M6 2 11 10 1 10 Z"></path>
    </symbol>
    <symbol id="i-tri-down" viewBox="0 0 12 12" fill="currentColor">
      <path d="M6 10 1 2 11 2 Z"></path>
    </symbol>
  </defs>
</svg>