<svg xmlns="http://www.w3.org/2000/svg" viewBox="0 0 240 56" fill="none" role="img" aria-label="TWI Trade Journal">
  
  <g stroke="#0F172A" stroke-width="2" stroke-linecap="round" stroke-linejoin="round" fill="none">
    
    <path d="M28 14c-7.18 0-13 5.82-13 13 0 4.94 2.76 9.24 6.83 11.45.71.39 1.17 1.13 1.17 1.94V42a3 3 0 0 0 3 3h4a3 3 0 0 0 3-3v-1.61c0-.81.46-1.55 1.17-1.94C38.24 36.24 41 31.94 41 27c0-7.18-5.82-13-13-13Z"></path>
    
    <path d="M24 28a4 4 0 0 1 8 0M28 28v6"></path>
    
    <path d="M24 41h8"></path>
  </g>
  
  <text x="56" y="28" font-family="Inter, system-ui, sans-serif" font-size="20" font-weight="800" letter-spacing="-0.01em" fill="#0F172A">TWI</text>
  
  <line x1="98" y1="14" x2="98" y2="36" stroke="#CBD5E1" stroke-width="1"></line>
  
  <text x="106" y="22" font-family="Inter, system-ui, sans-serif" font-size="10" font-weight="700" letter-spacing="0.18em" fill="#475569">TRADE</text>
  <text x="106" y="36" font-family="Inter, system-ui, sans-serif" font-size="10" font-weight="700" letter-spacing="0.18em" fill="#475569">JOURNAL</text>
</svg>