<svg xmlns="http://www.w3.org/2000/svg" viewBox="0 0 56 56" fill="none" role="img" aria-label="TWI">
  <g stroke="#0F172A" stroke-width="2.4" stroke-linecap="round" stroke-linejoin="round" fill="none">
    <path d="M28 8c-9.39 0-17 7.61-17 17 0 6.46 3.61 12.08 8.93 14.97.92.5 1.52 1.46 1.52 2.51V46a4 4 0 0 0 4 4h5.1a4 4 0 0 0 4-4v-3.52c0-1.05.6-2.01 1.52-2.51C41.39 37.08 45 31.46 45 25c0-9.39-7.61-17-17-17Z"></path>
    <path d="M22 27a6 6 0 0 1 12 0M28 27v8"></path>
    <path d="M22 45h12"></path>
  </g>
</svg>